<?xml version="1.0" encoding="UTF-8" standalone="no"?>
<!-- Created with Inkscape (http://www.inkscape.org/) -->

<svg
   version="1.1"
   id="svg1"
   width="60.213867"
   height="69.348999"
   viewBox="0 0 60.213868 69.348998"
   xml:space="preserve"
   xmlns="http://www.w3.org/2000/svg"
   xmlns:svg="http://www.w3.org/2000/svg"><defs
     id="defs1" /><g
     id="layer1"
     style="display:inline"
     transform="translate(-1321.9027,-1402.7752)"><path
       style="display:inline;fill:#284f86;fill-opacity:1;stroke:#000000;stroke-width:0.0850393;stroke-linecap:round;stroke-linejoin:round;stroke-opacity:0;paint-order:markers stroke fill"
       d="m 1322.078,1420.0605 29.9759,-17.1985 v 5.836 l -24.9799,14.3248 0.022,28.6495 24.9357,14.4795 v 5.9023 l -30.0865,-17.4196 z"
       id="path1" /><path
       style="display:inline;fill:#2fb8a5;fill-opacity:1;stroke:#000000;stroke-width:0.0850393;stroke-linecap:round;stroke-linejoin:round;stroke-opacity:0;paint-order:markers stroke fill"
       d="m 1352.076,1402.8178 v 5.9023 l 24.9136,14.369 -0.011,28.6605 5.0844,3.0065 0.011,-34.6845 z"
       id="path2" /><path
       style="display:inline;fill:#357b99;fill-opacity:1;stroke:#000000;stroke-width:0.0850393;stroke-linecap:round;stroke-linejoin:round;stroke-opacity:0;paint-order:markers stroke fill"
       d="m 1352.0649,1472.0817 0.01,-5.952 14.9051,-8.6325 3.3048,4.0455 z"
       id="path3" /><path
       style="display:inline;fill:#357b99;fill-opacity:1;stroke:#000000;stroke-width:0.0850393;stroke-linecap:round;stroke-linejoin:round;stroke-opacity:0;paint-order:markers stroke fill"
       d="m 1352.0207,1423.0117 6.8197,2.8406 3.6475,-3.5369 -10.4451,-4.2665 z"
       id="path4" /><path
       id="path83"
       style="display:inline;fill:#357b99;fill-opacity:1;stroke-width:0.025"
       d="m 1359.3492,1424.8579 c 0.015,-0.01 -0.032,0.011 -0.047,0.017 -0.01,0 -0.015,0.01 -0.023,0.01 0.023,-0.01 0.046,-0.018 0.069,-0.027 z m 5.8004,0.4271 c -0.2528,0.2399 -0.5076,0.4779 -0.7491,0.7294 -0.2877,0.2861 -0.5635,0.5839 -0.8576,0.8636 -0.1627,0.1616 -0.3195,0.3287 -0.4667,0.5046 -0.1166,0.128 -0.2565,0.2671 -0.3374,0.3563 -0.2107,0.2519 -0.4338,0.4932 -0.6508,0.7398 -0.258,0.2874 -0.5277,0.5643 -0.7821,0.8552 -0.016,0.017 -0.031,0.034 -0.047,0.052 0.2258,0.2135 0.3904,0.5046 0.4666,0.8557 0.044,-0.05 0.089,-0.088 0.1095,-0.084 0.022,0 0.036,-0.01 0.033,-0.029 -0.01,-0.046 0.2062,-0.2569 0.2715,-0.2664 0.056,-0.01 0.1149,0.1578 0.2128,0.6031 0.062,0.2832 0.084,0.4051 0.1732,0.9651 0.02,0.1275 0.035,0.5025 0.034,0.8333 0,0.6474 -0.093,1.3755 -0.2265,1.8349 -0.037,0.1284 -0.091,0.3135 -0.1192,0.4114 -0.07,0.2417 -0.3482,0.8007 -0.5505,1.1053 -0.5505,0.8286 -1.2697,1.3616 -2.2887,1.6957 -0.348,0.1142 -0.6976,0.1944 -1.2857,0.2949 -0.1386,0.024 -0.1748,0.052 -0.3955,0.3094 -0.1336,0.1558 -0.32,0.3659 -0.4142,0.4668 -0.094,0.1009 -0.3533,0.4009 -0.5758,0.6667 -0.2225,0.2657 -0.4509,0.5325 -0.5076,0.5927 -0.057,0.06 -0.1409,0.1592 -0.1872,0.22 l -0.084,0.1104 0.2656,0.3301 c 0.1461,0.1815 0.4349,0.5347 0.6418,0.7849 0.2069,0.2502 0.4984,0.6027 0.6478,0.7833 0.23,0.2781 0.6234,0.758 1.0876,1.3262 0.059,0.072 0.1522,0.1876 0.2073,0.2566 0.055,0.069 0.3021,0.37 0.5489,0.6689 0.1759,0.2131 0.4233,0.5129 0.6329,0.7672 1.1592,-0.585 2.3323,-1.1422 3.524,-1.6589 0.3645,-0.1583 0.7295,-0.3155 1.0952,-0.4707 -0.01,-0.012 -0.018,-0.022 -0.023,-0.028 -0.031,-0.037 -0.1434,-0.1746 -0.2505,-0.3065 -0.1072,-0.1319 -0.4023,-0.4919 -0.6558,-0.8 -0.5861,-0.7122 -0.5557,-0.6741 -0.5557,-0.6974 0,-0.028 0.1469,-0.1401 0.3816,-0.2909 0.4816,-0.3095 1.0003,-0.7225 1.2791,-1.0188 1.1005,-1.1692 1.7362,-2.2631 2.2004,-3.7864 0.2045,-0.6711 0.2544,-0.9009 0.3944,-1.8167 0.082,-0.5395 0.089,-0.6659 0.092,-1.6833 0,-1.113 -0.013,-1.3441 -0.1487,-2.2681 -0.1142,-0.7752 -0.2231,-1.2355 -0.5041,-2.1319 -0.2166,-0.6909 -0.6116,-1.5399 -0.952,-2.0463 -0.042,-0.062 -0.075,-0.1221 -0.075,-0.1333 8e-4,-0.017 0.122,-0.1529 0.3835,-0.4305 -0.3309,-0.01 -0.6615,-0.019 -0.9921,-0.036 z m -23.7446,0.1758 v 0 h 10e-5 c 10e-4,9e-4 0.016,0.01 0.023,0.01 0.023,0.01 0.044,0.013 0.066,0.019 -0.029,-0.01 -0.058,-0.018 -0.087,-0.028 -8e-4,-3e-4 0,-4e-4 0,-4e-4 v 0 z m -3.2784,1.0413 c 0.038,0.048 0.075,0.097 0.1192,0.1194 -0.025,-0.025 -0.054,-0.054 -0.088,-0.088 -0.01,-0.01 -0.021,-0.021 -0.031,-0.032 z m 12.821,10.9967 c -7e-4,4e-4 0,8e-4 0,0 7e-4,-3e-4 0,-6e-4 0,0 z m 1.2476,3.5347 c -0.068,0.011 -0.1366,0.02 -0.2046,0.032 0.054,0.051 0.09,0.08 0.097,0.077 0.01,0 0.047,-0.044 0.1075,-0.1083 z m -20.8582,8.3246 c 0.013,0.078 0.03,0.156 0.051,0.2351 0.01,0.03 0.011,0.079 0.027,0.1052 0.01,0.01 0.02,0.011 0.03,0.016 10e-5,0 2e-4,0 3e-4,0 0.043,-0.01 0,-0.089 -0.011,-0.1294 -0.035,-0.098 -0.066,-0.1689 -0.098,-0.2272 z m 48.0909,6.5831 c -0.033,0.011 -0.065,0.024 -0.096,0.037 -4e-4,0 -8e-4,0.01 0,0.013 h 3e-4 c 0.03,-0.013 0.06,-0.025 0.09,-0.037 0,0 0,-0.01 0.01,-0.014 z" /><path
       style="display:inline;fill:#22a699;fill-opacity:1;stroke:#000000;stroke-width:0.0850393;stroke-linecap:round;stroke-linejoin:round;stroke-opacity:0;paint-order:markers stroke fill"
       d="m 1329.782,1424.5591 5.0954,-2.9069 0.011,25.5878 17.1433,10.0141 0.011,5.9134 -22.2829,-12.9984 z"
       id="path5" /><path
       style="display:inline;fill:#31b8a9;fill-opacity:1;stroke:#000000;stroke-width:0.0850393;stroke-linecap:round;stroke-linejoin:round;stroke-opacity:0;paint-order:markers stroke fill"
       d="m 1352.0738,1463.191 v -5.9494 l 9.9685,-5.7553 3.22,3.9661 z"
       id="path6" /><path
       style="display:inline;fill:#22a699;fill-opacity:1;stroke:#000000;stroke-width:0.0850393;stroke-linecap:round;stroke-linejoin:round;stroke-opacity:0;paint-order:markers stroke fill"
       d="m 1345.1125,1433.6005 2.6638,-2.4427 4.2444,4.0896 v 5.9024 z"
       id="path7" /><path
       style="display:inline;fill:#30b7a8;fill-opacity:1;stroke:#000000;stroke-width:0.0850393;stroke-linecap:round;stroke-linejoin:round;stroke-opacity:0;paint-order:markers stroke fill"
       d="m 1352.0553,1441.1781 v -5.9399 l 15.0694,-15.0395 2.5312,1.3043 z"
       id="path8" /><path
       style="display:inline;fill:#357b99;fill-opacity:1;stroke:#000000;stroke-width:0.0850393;stroke-linecap:round;stroke-linejoin:round;stroke-opacity:0;paint-order:markers stroke fill"
       d="m 1382.0519,1454.7813 -9.5444,5.5234 -16.648,-20.3028 2.0497,-2.3545 5.1259,3.331 10.4562,12.7663 3.4485,-1.9895 z"
       id="path10" /><path
       style="display:inline;fill:#284f86;fill-opacity:1;stroke:#000000;stroke-width:0.0850393;stroke-linecap:round;stroke-linejoin:round;stroke-opacity:0;paint-order:markers stroke fill"
       d="m 1352.0207,1418.0157 -14.3026,5.9355 0.033,10.9978 h 4.7418 v -8.0135 l 9.4945,-3.8906 z"
       id="path9" /><path
       id="path129"
       style="display:inline;fill:#284f86;fill-opacity:1;stroke-width:0.025"
       d="m 1359.3224,1424.8374 c 0.015,-0.01 -0.031,0.011 -0.047,0.017 -0.01,0 -0.015,0.01 -0.023,0.01 0.023,-0.01 0.046,-0.018 0.069,-0.027 z m -17.944,0.6029 v 10e-5 0 c 10e-4,9e-4 0.017,0.01 0.023,0.01 0.023,0.01 0.044,0.013 0.066,0.018 -0.029,-0.01 -0.058,-0.018 -0.087,-0.028 -8e-4,-3e-4 0,-4e-4 0,-4e-4 h -10e-5 z m -3.2785,1.0414 c 0.038,0.048 0.075,0.096 0.1192,0.1193 -0.025,-0.025 -0.054,-0.054 -0.088,-0.088 -0.01,-0.01 -0.021,-0.021 -0.031,-0.032 z m -0.3709,6.685 c 0.012,1.657 0.034,2.1083 0.086,2.4773 0.01,0.055 0.03,0.2268 0.051,0.3817 0.1663,1.2718 0.5973,2.7491 1.2354,4.235 0.1,0.2322 0.6183,1.2522 0.7711,1.5166 0.4229,0.7319 1.2253,1.8896 1.6981,2.45 1.0151,1.2034 2.2055,2.368 3.2439,3.1737 0.018,0.014 0.1008,0.081 0.1833,0.1474 0.2374,0.1923 0.5797,0.44 1.0834,0.7843 1.3163,0.8995 2.526,1.6035 4.0833,2.3763 0.7727,0.3834 0.7111,0.3542 1.3,0.6168 0.2842,0.1267 0.5355,0.2314 0.5586,0.2326 0.033,0 0.042,-0.5343 0.04,-2.622 v -2.6243 l -0.5565,-0.2864 c -3.8231,-1.9675 -6.0706,-3.9112 -7.4953,-6.4817 -0.8231,-1.4852 -1.2803,-2.9115 -1.4106,-4.4 -0.01,-0.069 -0.012,-0.3809 -0.017,-0.8457 0,-0.013 -0.01,-0.026 -0.01,-0.039 0,-0.01 0,-0.014 -0.01,-0.02 0,-0.01 0,-0.015 -0.01,-0.023 0,-0.01 0,-0.014 -0.01,-0.021 0,-0.01 0,-0.013 0,-0.02 -4e-4,-0.01 -10e-4,-0.014 0,-0.021 -6e-4,-0.01 0,-0.016 0,-0.024 0,-0.01 0,-0.013 0,-0.02 0,0 0,-0.01 0,-0.015 -9e-4,-0.01 0,-0.011 0,-0.016 -9e-4,-0.01 0,-0.011 0,-0.016 -8e-4,-0.01 0,-0.01 0,-0.016 -8e-4,-0.01 0,-0.012 0,-0.018 -2e-4,-0.01 -6e-4,-0.012 -5e-4,-0.018 2e-4,0 5e-4,-0.01 2e-4,-0.014 -3e-4,-0.01 -9e-4,-0.011 0,-0.017 -5e-4,0 0,-0.01 0,-0.013 0,-0.01 0,-0.011 0,-0.016 -5e-4,-0.01 -7e-4,-0.012 -10e-5,-0.018 2e-4,0 5e-4,-0.01 2e-4,-0.011 -2e-4,0 -2e-4,-0.01 -7e-4,-0.01 -6e-4,0 0,-0.01 0,-0.01 0,0 0,-0.01 0,-0.012 0,-0.01 0,-0.012 0,-0.018 -5e-4,-0.01 -7e-4,-0.011 0,-0.016 -3e-4,0 -3e-4,-0.01 -5e-4,-0.014 -2e-4,0 -5e-4,-0.01 -10e-4,-0.012 -3e-4,0 -4e-4,-0.01 -9e-4,-0.011 -5e-4,0 -9e-4,-0.01 0,-0.012 -3e-4,0 -8e-4,-0.01 0,-0.014 -2e-4,0 -7e-4,-0.01 0,-0.01 -7e-4,0 0,-0.01 0,-0.013 -1e-4,0 -3e-4,-0.01 -7e-4,-0.011 -3e-4,0 -7e-4,-0.01 -5e-4,-0.013 -10e-5,0 -10e-5,-0.01 -10e-5,-0.01 -10e-5,0 -2e-4,-0.01 -4e-4,-0.01 -4e-4,0 -10e-4,-0.01 -9e-4,-0.014 v -0.012 -0.015 -0.014 -0.015 -0.015 -0.013 c 0,0 0,-0.01 0,-0.011 0,0 0,-0.01 0,-0.012 0,0 0,-0.01 -10e-5,-0.011 0,0 0,-0.01 -2e-4,-0.011 -2e-4,0 -6e-4,-0.01 0,-0.01 -8e-4,0 0,-0.01 0,-0.012 -8e-4,0 0,-0.01 0,-0.011 -6e-4,-9e-4 0,0 0,0 0,0 0,-0.01 -0.01,-0.01 0,-0.01 -0.01,-0.018 -0.01,-0.028 0,-0.011 0,-0.023 -10e-4,-0.034 4e-4,-0.01 0,-0.016 0,-0.024 7e-4,-0.01 7e-4,-0.014 10e-4,-0.021 4e-4,-0.01 10e-4,-0.015 0,-0.022 7e-4,0 -2e-4,-0.01 -3e-4,-0.013 -3e-4,0 -5e-4,0 0,-0.01 0,-0.01 0,-0.013 -0.01,-0.02 0,-0.011 -0.01,-0.022 0,-0.033 5e-4,-0.01 0,-0.018 0,-0.026 h -0.1366 -0.673 c -0.3606,0.01 -0.7206,0 -1.0806,-0.025 -0.6815,-0.044 -1.3635,-0.077 -2.0459,-0.1021 -0.2701,-0.01 -0.5401,-0.016 -0.8101,-0.025 z m 13.1919,4.3117 c -7e-4,3e-4 0,7e-4 0,0 7e-4,-3e-4 0,-7e-4 0,0 z m 1.2476,3.5346 c -0.068,0.011 -0.1366,0.02 -0.2046,0.032 0.054,0.051 0.09,0.08 0.097,0.077 0.01,0 0.047,-0.044 0.1075,-0.1084 z m -20.8582,8.3246 c 0.013,0.078 0.03,0.1561 0.051,0.2351 0.01,0.03 0.011,0.079 0.027,0.1052 0.01,0.01 0.02,0.011 0.03,0.016 v 0 c 10e-5,0 2e-4,0 3e-4,0 0.043,-0.01 0,-0.089 -0.011,-0.1295 -0.035,-0.098 -0.066,-0.1689 -0.098,-0.2272 z m 48.0909,6.5831 c -0.033,0.011 -0.065,0.024 -0.096,0.037 -4e-4,0 -8e-4,0.01 0,0.013 h 3e-4 c 0.03,-0.013 0.06,-0.025 0.09,-0.037 0,0 0,-0.01 0.01,-0.013 z" /></g></svg>
